#!OML:ASF E:/inclinewalkrobotboard/Project1/Captureday1/Session1/subject1.ASF
:FULLY-SPECIFIED
:DEGREES
351
root 0 0 0 -2.1546603872814787 -6.080783896914278 -6.914585603431792
lowerback 9.174473032722432 2.91445732803765 5.38984411404803
upperback 0.45318318508500477 4.467718787153294 0.9843496917777784
thorax -4.508715188472991 2.1046373706562695 -2.5483749581884565
lowerneck -12.77481846977351 -3.520629810641707 -1.7581659114095918
upperneck 13.223043668764769 -4.963892270864161 3.5071885540233816
head 6.1421311870468855 -2.267268454946197 0.9535541212053222
rclavicle -2.9854901029644737E-15 -1.7119592464706407E-15
rhumerus -30.238494154557088 -17.68861125874914 -83.49696432731413
rradius 21.59154845999268
rwrist 13.835171535157397
rhand -19.231586906755275 30.826976841423622
rfingers 7.125020000000002
rthumb 7.094162614325378 0.7514409457624254
lclavicle -4.170997683040761E-15 -1.3595662153614924E-15
lhumerus -34.90954244091705 7.940580501454319 79.53881483335043
lradius 16.95051384523817
lwrist -1.0513651108625623
lhand -27.359362824563426 27.516946671996823
lfingers 7.125019999999991
lthumb -0.8118385305991938 57.60559528315706
rfemur -12.278740917150063 5.16360408896943 27.84023478766379
rtibia 41.03667749687001
rfoot -8.526769212945077 -6.383675459616336
rtoes 5.220167612969966
lfemur -16.729260532118833 -0.9517933344964469 -18.110069299635192
ltibia 35.739398497782126
lfoot -3.357174703977231 -3.74070120071474
ltoes -1.8818636763095
352
root 0 0 0 -2.229846726331044 -6.079746276960757 -6.80988907397942
lowerback 9.289685327162685 2.875142555022374 5.32191832178257
upperback 0.5773703766031996 4.408413753868913 0.9998738623299643
thorax -4.43847834424084 2.076979303133455 -2.48447509475739
lowerneck -12.770096445769113 -3.516859016113612 -1.7853498468167408
upperneck 13.407949536085722 -4.94387172065241 3.4711530116520164
head 6.1913175024939475 -2.2608330481786862 0.944294956055755
rclavicle -2.9392348605776278E-15 -1.7609375722307231E-15
rhumerus -30.12671508822814 -17.828019300857182 -83.40113704900192
rradius 21.831978252081313
rwrist 13.94467059546195
rhand -19.32816610333014 30.83293826415946
rfingers 7.125020000000002
rthumb 7.0015972637998605 0.7463554613507597
lclavicle -4.14191308336757E-15 -1.4220726067106742E-15
lhumerus -34.87221289911196 7.867149279408664 79.53000602854297
lradius 17.05114072700677
lwrist -0.9574017034622186
lhand -27.388433504618654 27.563333069425756
lfingers 7.125019999999992
lthumb -0.8396558433748131 57.6543015465218
rfemur -12.639963451516877 5.093345826606317 27.66381727490774
rtibia 41.24450391152105
rfoot -8.353040995822784 -6.4264268273589895
rtoes 5.207688250194958
lfemur -16.063285622897126 -1.2909468145421652 -18.364832864392458
ltibia 35.1321325232183
lfoot -3.7861687621165796 -3.481910912536525
ltoes -1.6002322881850475
353
root 0 0 0 -2.3427429809981257 -6.078536351332665 -6.661984227188967
lowerback 9.421109565187784 2.815344096638309 5.227787430157736
upperback 0.7426435940080819 4.319203791694283 1.0233202293579544
thorax -4.332552572732124 2.035064673479127 -2.3922592701075094
lowerneck -12.788229780659828 -3.5049069015112106 -1.8226300862965545
upperneck 13.720949116070056 -4.908170618646809 3.4123359659114456
head 6.2816385801433565 -2.2473881084245453 0.9283565908947262
rclavicle -2.896775655569135E-15 -1.8245697977762315E-15
rhumerus -30.028012682416655 -17.997311495225293 -83.3157424657397
rradius 22.07823699846586
rwrist 14.108143777164418
rhand -19.43979405078648 30.827431302884698
rfingers 7.125020000000003
rthumb 6.894768719749216 0.7281531107684103
lclavicle -4.1171593626322144E-15 -1.5010143214051679E-15
lhumerus -34.8264122872142 7.780728984327553 79.521629618579
lradius 17.1672784093427
lwrist -0.8483472723102659
lhand -27.422439321277647 27.617763308907747
lfingers 7.125019999999993
lthumb -0.8722370206712844 57.71130417562079
rfemur -13.070817810880897 5.008205245926023 27.449895198883304
rtibia 41.493630460148154
rfoot -8.1418541636898 -6.4762820493133
rtoes 5.194341877781785
lfemur -15.187267407678444 -1.7143071091250945 -18.682423986659618
ltibia 34.387163174569466
lfoot -4.340589535199589 -3.1583742182515757
ltoes -1.29898245019292
354
root 0 0 0 -2.524506621393784 -6.072114964699503 -6.431681583482131
lowerback 9.55887417911921 2.7188991123028083 5.076688565537782
upperback 0.970463639217505 4.175365951753354 1.0593730908951902
thorax -4.161962591217366 1.967373319986112 -2.2447419183204547
lowerneck -12.846022995799393 -3.4764717585629255 -1.8755879109003875
upperneck 14.31944989149737 -4.845866814994007 3.318893626772994
head 6.4658123689852065 -2.2204599462074333 0.9016924211554593
rclavicle -2.8625041944309713E-15 -1.9043893337800695E-15
rhumerus -29.967538811589286 -18.20449259393322 -83.2559250507311
rradius 22.30654731451819
rwrist 14.334753631421133
rhand -19.56622801262165 30.799385655892095
rfingers 7.125020000000003
rthumb 6.77399806157141 0.6858293539783702
lclavicle -4.097013658172782E-15 -1.5997146957407832E-15
lhumerus -34.76734180178525 7.670924262770689 79.51318366033999
lradius 17.313211584609327
lwrist -0.7115956179606884
lhand -27.46470991470624 27.685243832921
lfingers 7.125019999999995
lthumb -0.9127733383641994 57.781760274686945
rfemur -13.616443414453432 4.900653154413036 27.180254813341506
rtibia 41.81061609896169
rfoot -7.8743699741180695 -6.539636567401719
rtoes 5.179119735802069
lfemur -13.966380886475587 -2.2595074186360273 -19.096081959060044
ltibia 33.44081327026994
lfoot -5.0980221253201385 -2.737971145070922
ltoes -1.0037647261718199
